<svg width="1728" height="1005" viewBox="0 0 1728 1005" fill="none" xmlns="http://www.w3.org/2000/svg">
<g filter="url(#filter0_f_33_82)">
<line y1="207" x2="399" y2="207" stroke="#BDC4BB" stroke-opacity="0.26" stroke-width="2"/>
<line x1="958.993" y1="487.154" x2="1727.99" y2="482" stroke="#BDC4BB" stroke-opacity="0.26" stroke-width="2"/>
<line x1="399" y1="409" x2="959" y2="409" stroke="#BDC4BB" stroke-opacity="0.26" stroke-width="2"/>
<line x1="1168" y1="804" x2="1728" y2="804" stroke="#BDC4BB" stroke-opacity="0.26" stroke-width="2"/>
<line x1="-0.00670226" y1="820.154" x2="768.992" y2="815" stroke="#BDC4BB" stroke-opacity="0.26" stroke-width="2"/>
<line x1="224.993" y1="503.154" x2="993.992" y2="498" stroke="#BDC4BB" stroke-opacity="0.26" stroke-width="2"/>
<line x1="958" y1="1002" x2="958" y2="410" stroke="#BDC4BB" stroke-opacity="0.26" stroke-width="2"/>
<line x1="1167" y1="595" x2="1167" y2="3" stroke="#BDC4BB" stroke-opacity="0.26" stroke-width="2"/>
<line x1="224" y1="502" x2="224" y2="208" stroke="#BDC4BB" stroke-opacity="0.26" stroke-width="2"/>
<line x1="1167" y1="805" x2="1167" y2="226" stroke="#BDC4BB" stroke-opacity="0.26" stroke-width="2"/>
<line x1="768" y1="1002" x2="768" y2="816" stroke="#BDC4BB" stroke-opacity="0.26" stroke-width="2"/>
<line x1="398" y1="816" x2="398" y2="206" stroke="#BDC4BB" stroke-opacity="0.26" stroke-width="2"/>
<path d="M768.5 409L768.5 3" stroke="#BDC4BB" stroke-opacity="0.26" stroke-width="2"/>
<path d="M1310 483L1310 199" stroke="#BDC4BB" stroke-opacity="0.26" stroke-width="2"/>
<path d="M959 483L959 199" stroke="#BDC4BB" stroke-opacity="0.26" stroke-width="2"/>
<line x1="1646" y1="1002" x2="1646" y2="3" stroke="#BDC4BB" stroke-opacity="0.26" stroke-width="2"/>
<path d="M225 206L225 147" stroke="#BDC4BB" stroke-opacity="0.26" stroke-width="2"/>
</g>
<line y1="207" x2="399" y2="207" stroke="#BDC4BB" stroke-opacity="0.26" stroke-width="2"/>
<line x1="958.993" y1="487.154" x2="1727.99" y2="482" stroke="#BDC4BB" stroke-opacity="0.26" stroke-width="2"/>
<line x1="399" y1="409" x2="959" y2="409" stroke="#BDC4BB" stroke-opacity="0.26" stroke-width="2"/>
<line x1="1168" y1="804" x2="1728" y2="804" stroke="#BDC4BB" stroke-opacity="0.26" stroke-width="2"/>
<line x1="-0.00670226" y1="820.154" x2="768.992" y2="815" stroke="#BDC4BB" stroke-opacity="0.26" stroke-width="2"/>
<line x1="224.993" y1="503.154" x2="993.992" y2="498" stroke="#BDC4BB" stroke-opacity="0.26" stroke-width="2"/>
<line x1="958" y1="1002" x2="958" y2="410" stroke="#BDC4BB" stroke-opacity="0.26" stroke-width="2"/>
<line x1="1167" y1="595" x2="1167" y2="3" stroke="#BDC4BB" stroke-opacity="0.26" stroke-width="2"/>
<line x1="224" y1="502" x2="224" y2="208" stroke="#BDC4BB" stroke-opacity="0.26" stroke-width="2"/>
<line x1="1167" y1="805" x2="1167" y2="226" stroke="#BDC4BB" stroke-opacity="0.26" stroke-width="2"/>
<line x1="768" y1="1002" x2="768" y2="816" stroke="#BDC4BB" stroke-opacity="0.26" stroke-width="2"/>
<line x1="398" y1="816" x2="398" y2="206" stroke="#BDC4BB" stroke-opacity="0.26" stroke-width="2"/>
<path d="M768.5 409L768.5 3" stroke="#BDC4BB" stroke-opacity="0.26" stroke-width="2"/>
<path d="M1310 483L1310 208" stroke="#BDC4BB" stroke-opacity="0.26" stroke-width="2"/>
<path d="M959 483L959 208" stroke="#BDC4BB" stroke-opacity="0.26" stroke-width="2"/>
<path d="M225 206L225 147" stroke="#BDC4BB" stroke-opacity="0.26" stroke-width="2"/>
<line x1="1646" y1="1002" x2="1646" y2="3" stroke="#BDC4BB" stroke-opacity="0.26" stroke-width="2"/>
<defs>
<filter id="filter0_f_33_82" x="-3.0134" y="0" width="1734.01" height="1005" filterUnits="userSpaceOnUse" color-interpolation-filters="sRGB">
<feFlood flood-opacity="0" result="BackgroundImageFix"/>
<feBlend mode="normal" in="SourceGraphic" in2="BackgroundImageFix" result="shape"/>
<feGaussianBlur stdDeviation="1.5" result="effect1_foregroundBlur_33_82"/>
</filter>
</defs>
</svg>
